Coordinates
version=1
nRows=4
nColumns=124
inDegrees=yes

Units are S.I. units (second, meters, Newtons, ...)
If the header above contains a line with 'inDegrees', this indicates whether rotational values are in degrees (yes) or radians (no).

endheader 
time	pelvis_tilt	pelvis_list	pelvis_rotation	pelvis_tx	pelvis_ty	pelvis_tz	hip_flexion_l	hip_adduction_l	hip_rotation_l	hip_flexion_r	hip_adduction_r	hip_rotation_r	knee_angle_l	knee_angle_r	ankle_angle_l	ankle_angle_r	subtalar_angle_l	subtalar_angle_r	mtp_angle_l	mtp_angle_r	lumbar_extension	lumbar_bending	lumbar_rotation	arm_flex_l	arm_add_l	arm_rot_l	arm_flex_r	arm_add_r	arm_rot_r	elbow_flex_l	elbow_flex_r	glut_med1_l/activation	glut_med2_l/activation	glut_med3_l/activation	glut_min1_l/activation	glut_min2_l/activation	glut_min3_l/activation	semimem_l/activation	semiten_l/activation	bifemlh_l/activation	bifemsh_l/activation	sar_l/activation	add_long_l/activation	add_brev_l/activation	add_mag1_l/activation	add_mag2_l/activation	add_mag3_l/activation	tfl_l/activation	pect_l/activation	grac_l/activation	glut_max1_l/activation	glut_max2_l/activation	glut_max3_l/activation	iliacus_l/activation	psoas_l/activation	quad_fem_l/activation	gem_l/activation	peri_l/activation	rect_fem_l/activation	vas_med_l/activation	vas_int_l/activation	vas_lat_l/activation	med_gas_l/activation	lat_gas_l/activation	soleus_l/activation	tib_post_l/activation	flex_dig_l/activation	flex_hal_l/activation	tib_ant_l/activation	per_brev_l/activation	per_long_l/activation	per_tert_l/activation	ext_dig_l/activation	ext_hal_l/activation	ercspn_l/activation	intobl_l/activation	extobl_l/activation	glut_med1_r/activation	glut_med2_r/activation	glut_med3_r/activation	glut_min1_r/activation	glut_min2_r/activation	glut_min3_r/activation	semimem_r/activation	semiten_r/activation	bifemlh_r/activation	bifemsh_r/activation	sar_r/activation	add_long_r/activation	add_brev_r/activation	add_mag1_r/activation	add_mag2_r/activation	add_mag3_r/activation	tfl_r/activation	pect_r/activation	grac_r/activation	glut_max1_r/activation	glut_max2_r/activation	glut_max3_r/activation	iliacus_r/activation	psoas_r/activation	quad_fem_r/activation	gem_r/activation	peri_r/activation	rect_fem_r/activation	vas_med_r/activation	vas_int_r/activation	vas_lat_r/activation	med_gas_r/activation	lat_gas_r/activation	soleus_r/activation	tib_post_r/activation	flex_dig_r/activation	flex_hal_r/activation	tib_ant_r/activation	per_brev_r/activation	per_long_r/activation	per_tert_r/activation	ext_dig_r/activation	ext_hal_r/activation	ercspn_r/activation	intobl_r/activation	extobl_r/activation	
          1.15871286	          2.58818271	         10.80295903	         -2.72176470	          0.80721910	          1.04311516	         -0.01334173	        -16.80683345	         15.34232791	          3.47483376	         -1.44627360	         -8.81854726	          2.56571499	        -19.65510163	         -7.42094872	         -5.54603889	         14.04592567	         -3.03251635	         -1.81245620	          2.65960621	          1.70177592	         -3.51134982	         -0.52792587	         -1.49924983	          4.27505437	        -13.46377857	         18.70348785	        -34.78675721	        -14.74838772	         17.30673467	        114.69618065	          2.68935929	          0.05000146	          0.05000228	          0.05000545	          0.05000652	          0.05000609	          0.05000911	          0.05001335	          0.05000289	          0.05000378	          0.06579849	          0.06446653	          0.18103433	          0.24571662	          0.05002381	          0.05002296	          0.05002058	          0.05001706	          0.15535888	          0.16633306	          0.05001814	          0.05001781	          0.05002132	          0.34974263	          0.37979075	          0.23115727	          0.07418033	          0.05000841	          0.05622270	          0.05000253	          0.05000256	          0.05000485	          0.05000427	          0.05000964	          0.05000022	          0.18206499	          0.07739168	          0.05964881	          0.07372605	          0.05000201	          0.05000051	          0.16683275	          0.30976041	          0.35064682	          0.11532874	          0.29483690	          0.15712244	          0.63064524	          0.80756610	          0.23807726	          0.68994645	          0.66152253	          0.12983655	          0.05000058	          0.05000060	          0.05000139	          0.05000115	          0.23058099	          0.05000017	          0.05000050	          0.05000269	          0.05000363	          0.05000498	          0.78808971	          0.05000173	          0.05000072	          0.05002968	          0.05002830	          0.05000353	          0.05000117	          0.05000107	          0.05000030	          0.05000188	          0.15659542	          0.49461923	          0.21021112	          0.22664819	          0.15243862	          0.05000089	          0.05000245	          0.10713729	          0.39469276	          0.17108479	          0.16941697	          0.10441179	          0.05000146	          0.05000084	          0.05000603	          0.05000333	          0.05002477	          0.05000020	          0.05000019	          0.05000017	
          1.19002942	          2.50238450	         11.63429815	         -4.35017098	          0.82206902	          1.04343428	         -0.01231083	        -15.46545952	         16.63138732	          2.81373621	         -2.46650999	        -10.03455967	          3.09727823	        -18.19589373	         -6.24003471	         -1.83983799	         14.43172388	         -2.96332748	         -0.87034421	          1.65775342	          1.80872706	         -3.47041925	         -0.70958444	         -1.77373476	          5.83373390	        -13.46362361	         17.34138629	        -34.61303159	        -15.55716844	         15.55448517	        115.11425683	          0.95686688	          0.05000157	          0.05000227	          0.05000508	          0.05000750	          0.05000673	          0.05000939	          0.05001029	          0.05000203	          0.05000196	          0.05000968	          0.08079382	          0.17297672	          0.23374017	          0.05002343	          0.05002273	          0.05001976	          0.05002458	          0.14713254	          0.15070338	          0.05001742	          0.05001695	          0.05002068	          0.33263776	          0.36354147	          0.22707651	          0.05357692	          0.05000722	          0.05003785	          0.05000290	          0.05000287	          0.05000561	          0.05000149	          0.05000458	          0.05000015	          0.14883422	          0.10876660	          0.05000380	          0.29787217	          0.05000056	          0.05000025	          0.18874375	          0.30036248	          0.42496281	          0.12404225	          0.31452866	          0.14041885	          0.51914825	          0.80070310	          0.16017300	          0.73924766	          0.67128696	          0.11525383	          0.05000048	          0.05000054	          0.05000116	          0.05000175	          0.29954577	          0.05000020	          0.05000054	          0.05000270	          0.05000344	          0.05000416	          0.80566551	          0.05000199	          0.05000074	          0.05002650	          0.05001997	          0.05000278	          0.05000265	          0.05000455	          0.05000028	          0.05000172	          0.10289906	          0.48019606	          0.14667069	          0.15836399	          0.10444348	          0.05000141	          0.05000374	          0.11730027	          0.38648741	          0.14878828	          0.15104893	          0.06862304	          0.05000209	          0.05000126	          0.05000725	          0.05000381	          0.05001822	          0.05000019	          0.05000017	          0.05000017	
          1.22134599	          2.40137320	         12.28790866	         -5.90895242	          0.83613743	          1.04313221	         -0.01108465	        -13.62772114	         17.62842348	          2.12309109	         -3.35326016	        -11.05305460	          3.63555931	        -15.92645043	         -5.15916287	          1.34157552	         14.74769387	         -3.48931318	         -0.15503384	          1.02625880	          1.91445358	         -3.49245457	         -0.86695391	         -1.96054971	          7.11825912	        -13.46360634	         15.29774354	        -33.87574604	        -16.46879159	         13.49315702	        114.23030320	          0.16220865	          0.05000176	          0.05000225	          0.05000459	          0.05000843	          0.05000730	          0.05000954	          0.05000775	          0.05000148	          0.05000118	          0.05000420	          0.07563610	          0.17120595	          0.24761873	          0.05002319	          0.05002260	          0.05001910	          0.05003320	          0.13202524	          0.11209689	          0.05001644	          0.05001613	          0.05002019	          0.28045172	          0.31870857	          0.19512175	          0.05002877	          0.05000565	          0.05003042	          0.05000494	          0.05000476	          0.05000679	          0.05000098	          0.05000285	          0.05000019	          0.13727277	          0.09174502	          0.05000405	          0.39450307	          0.05000076	          0.05000031	          0.24470103	          0.29467381	          0.44462069	          0.13136410	          0.32724687	          0.13292087	          0.40061032	          0.84579136	          0.14749010	          0.75991916	          0.68429529	          0.11148224	          0.05000044	          0.05000051	          0.05000108	          0.05000266	          0.34129636	          0.05000022	          0.05000056	          0.05000273	          0.05000334	          0.05000378	          0.82009719	          0.05000220	          0.05000077	          0.05002504	          0.05001761	          0.05000253	          0.07178698	          0.14517572	          0.05000029	          0.05000180	          0.06764972	          0.47225288	          0.09991352	          0.10824350	          0.07040151	          0.05000317	          0.05000842	          0.13103305	          0.38359391	          0.13508842	          0.14047719	          0.05001510	          0.05000270	          0.05000163	          0.05000713	          0.05000323	          0.05001183	          0.05000019	          0.05000015	          0.05000018	
          1.25266255	          2.28666613	         12.74369437	         -7.38029385	          0.84960496	          1.04220940	         -0.00966325	        -11.28955340	         18.24703588	          1.40402712	         -4.13354369	        -11.84339817	          4.19313833	        -13.19524379	         -4.19640142	          3.65604579	         14.99283074	         -4.38815382	          0.34339171	          0.62405115	          2.05136299	         -3.56983590	         -0.98584861	         -2.05831218	          8.12113308	        -13.46363590	         12.76002338	        -32.51703743	        -17.35222333	         11.47337254	        111.99824422	          0.00002956	          0.05000217	          0.05000229	          0.05000420	          0.05001041	          0.05000834	          0.05000995	          0.05000545	          0.05000135	          0.05000087	          0.05000403	          0.07713974	          0.17214732	          0.24709159	          0.05002294	          0.05002242	          0.05001812	          0.05004555	          0.11447091	          0.08358217	          0.05001515	          0.05001501	          0.05001946	          0.21188753	          0.25589541	          0.14158880	          0.05001539	          0.05000495	          0.05001486	          0.05000527	          0.05000498	          0.05000700	          0.05000084	          0.05000227	          0.05000026	          0.11366218	          0.08205127	          0.05000442	          0.41396390	          0.05000090	          0.05000038	          0.24999530	          0.29322287	          0.43497123	          0.13974804	          0.33490399	          0.13259404	          0.29259734	          0.92027189	          0.16443463	          0.75498920	          0.69128220	          0.11041213	          0.05000043	          0.05000051	          0.05000109	          0.05000329	          0.35982135	          0.05000023	          0.05000058	          0.05000280	          0.05000333	          0.05000368	          0.82723270	          0.05000229	          0.05000079	          0.05002501	          0.05001792	          0.05000256	          0.17725070	          0.23193986	          0.05000032	          0.05000214	          0.09500004	          0.46919585	          0.08327647	          0.09087883	          0.05513845	          0.07978591	          0.05001665	          0.14416724	          0.38366376	          0.12149162	          0.13061457	          0.05001096	          0.05000311	          0.05000203	          0.05000686	          0.05000292	          0.05000996	          0.05000019	          0.05000015	          0.05000018	
